<svg width="250" height="227" viewBox="0 0 250 227" fill="none" xmlns="http://www.w3.org/2000/svg">
<path d="M136.221 129.657L101.505 137.149L104.037 119.406L104.039 119.398C104.664 114.906 106.206 110.918 108.505 108.566C110.837 106.18 113.302 105.18 117.036 104.648L120.969 104.087L118.763 100.784L93.8073 63.4186L90.1864 57.9971L89.254 64.4496L78.6558 137.793C78.6553 137.796 78.6549 137.799 78.6545 137.802C78.3237 139.99 78.1567 142.351 78.9106 144.245C79.3272 145.292 80.0347 146.227 81.1085 146.864C82.1441 147.479 83.3235 147.699 84.5114 147.699C85.7171 147.699 87.1685 147.45 88.194 147.244C88.7334 147.135 89.2082 147.027 89.5487 146.945C89.7195 146.905 89.8577 146.87 89.955 146.846C90.0036 146.834 90.0421 146.824 90.0693 146.817L90.0699 146.817L93.4745 146.049L92.4798 153.037C92.4796 153.038 92.4793 153.04 92.4791 153.041C91.7826 157.805 90.5601 161.176 88.8074 163.521C87.109 165.793 84.7702 167.292 81.4009 168.067C81.3967 168.068 81.3924 168.069 81.3881 168.07L62.9407 172.088C62.7294 172.124 62.5048 172.17 62.3068 172.209L62.2687 172.217C62.0248 172.266 61.7892 172.313 61.5429 172.356C61.0499 172.442 60.5718 172.5 60.1112 172.5C58.536 172.5 57.5193 172.004 56.8473 171.211C56.1227 170.355 55.5 168.8 55.5 166.141C55.5 165.213 55.6613 163.737 55.8611 162.247C55.9414 161.648 56.0326 161.018 56.1139 160.456C56.2093 159.797 56.2912 159.231 56.3265 158.916L72.3933 47.471L72.3944 47.4632L72.3955 47.4554C72.77 44.7358 73.7737 42.1378 75.5974 40.2788C77.5487 38.371 79.5179 37.5522 84.8505 36.3024L109.089 31.0347L109.173 31.0194C109.252 31.0052 109.372 30.9841 109.525 30.9586C109.832 30.9074 110.27 30.8387 110.785 30.77C111.833 30.6302 113.13 30.5 114.278 30.5C117.204 30.5 120.278 30.969 123.325 32.4529C126.361 33.9313 129.515 36.4869 132.509 40.8735C132.511 40.8765 132.513 40.8794 132.515 40.8824L193.253 131.613L193.291 131.67L193.332 131.725C194.583 133.388 195.5 135.238 195.5 137.025C195.5 140.247 192.439 144.379 186.595 145.702C186.591 145.703 186.588 145.704 186.584 145.705L166.885 149.965L166.815 149.98L166.75 149.998L166.75 149.998L166.749 149.998L166.747 149.999L166.747 149.999L166.746 149.999L166.74 150C166.729 150.003 166.708 150.009 166.679 150.016C166.62 150.031 166.527 150.055 166.402 150.083C166.153 150.141 165.782 150.22 165.321 150.3C164.392 150.461 163.133 150.619 161.783 150.619C154.63 150.619 149.399 146.432 146.486 142.175L138.827 130.712L137.883 129.298L136.221 129.657Z" fill="#F28379" stroke="black" stroke-width="5"/>
<g filter="url(#filter0_d)">
<rect x="6.5" y="2.5" width="226" height="214" rx="45.5" stroke="#0D0D0D" stroke-width="5"/>
</g>
<defs>
<filter id="filter0_d" x="0" y="0" width="239" height="227" filterUnits="userSpaceOnUse" color-interpolation-filters="sRGB">
<feFlood flood-opacity="0" result="BackgroundImageFix"/>
<feColorMatrix in="SourceAlpha" type="matrix" values="0 0 0 0 0 0 0 0 0 0 0 0 0 0 0 0 0 0 127 0"/>
<feOffset dy="4"/>
<feGaussianBlur stdDeviation="2"/>
<feColorMatrix type="matrix" values="0 0 0 0 0 0 0 0 0 0 0 0 0 0 0 0 0 0 0.25 0"/>
<feBlend mode="normal" in2="BackgroundImageFix" result="effect1_dropShadow"/>
<feBlend mode="normal" in="SourceGraphic" in2="effect1_dropShadow" result="shape"/>
</filter>
</defs>
</svg>
